<svg width="292" height="31" viewBox="0 0 292 31" fill="none" xmlns="http://www.w3.org/2000/svg">
<path d="M219.47 5.39209H216.261C215.377 5.39209 214.779 4.65232 214.93 3.73061V3.67794C215.088 2.7658 215.94 2.02364 216.824 2.02364H220.045C220.929 2.02364 221.524 2.76819 221.371 3.67794L221.364 3.73061C221.208 4.65232 220.364 5.39209 219.472 5.39209M11.7552 7.08948H8.53851C7.65471 7.08948 7.05235 6.33774 7.21034 5.428L7.21775 5.37293C7.37328 4.45122 8.22251 3.70427 9.10137 3.70427H12.3181C13.2044 3.70427 13.8043 4.45122 13.6487 5.37293L13.6413 5.428C13.4907 6.33774 12.6341 7.08948 11.7528 7.08948M45.1618 7.08948H41.95C41.0638 7.08948 40.4639 6.34492 40.6219 5.428L40.6293 5.37293C40.7799 4.45122 41.6291 3.70427 42.5178 3.70427H45.7346C46.6208 3.70427 47.2207 4.45122 47.0627 5.37293L47.0479 5.428C46.8973 6.34492 46.053 7.08948 45.1618 7.08948ZM224.79 12.9262C224.247 12.9262 223.756 12.6078 223.541 12.0572C223.232 11.2528 223.617 10.2401 224.405 9.80195L240.168 1.12587C240.622 0.881673 241.051 0.75 241.481 0.75C241.962 0.75 242.444 0.91519 242.947 1.25754L255.405 9.67507C256.153 10.1778 256.32 11.1905 255.787 11.9446L255.629 12.1649C255.296 12.6317 254.763 12.8807 254.229 12.8807C253.906 12.8807 253.585 12.7897 253.306 12.5982L240.931 4.25012L225.521 12.7275C225.279 12.864 225.027 12.9238 224.785 12.9238M247.352 13.8407H231.273C230.392 13.8407 229.792 13.101 229.945 12.1864L229.952 12.1194C230.105 11.2097 230.957 10.4651 231.843 10.4651H247.919C248.798 10.4651 249.406 11.2121 249.255 12.1194L249.24 12.1864C249.085 13.1034 248.238 13.8407 247.352 13.8407ZM43.4609 17.2259H40.2392C39.3554 17.2259 38.7555 16.4742 38.9061 15.5549L38.9209 15.5118C39.0765 14.5973 39.9183 13.8431 40.8045 13.8431H44.0262C44.9075 13.8431 45.5 14.5973 45.3519 15.5118V15.5549C45.1939 16.4742 44.3373 17.2259 43.4609 17.2259ZM135.768 23.9796C134.887 23.9796 134.287 23.235 134.44 22.3181L137.287 5.37054C137.44 4.44883 138.286 3.70188 139.17 3.70188H139.175C140.059 3.70188 140.649 4.44883 140.496 5.37054L137.659 22.3181C137.501 23.235 136.652 23.9796 135.768 23.9796ZM24.7086 25.6746C23.8297 25.6746 23.2323 24.9205 23.3878 24.0107L25.6541 10.4627H19.2256L16.9469 24.0107C16.7963 24.9205 15.9496 25.6746 15.0633 25.6746C14.177 25.6746 13.5796 24.9205 13.7351 24.0107L16.2853 8.80123L16.2952 8.74856L16.863 5.36815C16.9445 4.88215 17.2234 4.45361 17.5839 4.14239C17.8776 3.78328 18.2825 3.50557 18.7269 3.43614L31.8876 1.07559C31.9789 1.05883 32.0678 1.05165 32.1517 1.05165C32.8948 1.05165 33.47 1.62862 33.47 2.44739C33.47 3.36432 32.7516 4.24533 31.8851 4.39855L19.8847 6.55081L19.7909 7.08708H34.2674C35.1512 7.08708 35.7462 7.83403 35.5931 8.75096L35.5882 8.80363C35.4351 9.71816 34.5859 10.4651 33.6996 10.4651H28.8757L26.5971 24.0131C26.4441 24.9229 25.5998 25.677 24.7135 25.677M84.8216 27.3696H75.1764C74.2852 27.3696 73.6927 26.6226 73.8458 25.6985L77.26 5.37293C77.3365 4.88694 77.6056 4.4584 77.9759 4.14717C78.2697 3.78807 78.6671 3.51035 79.1189 3.44093L90.2898 1.42991C90.3812 1.41316 90.4676 1.40597 90.554 1.40597C91.2971 1.40597 91.8723 1.98534 91.8723 2.81368C91.8723 3.72343 91.1588 4.59965 90.2898 4.75766L80.2767 6.5556L79.6176 10.4723H87.6631C88.5445 10.4723 89.1493 11.2192 88.9913 12.1266L88.9765 12.1936C88.821 13.1105 87.9791 13.8479 87.0929 13.8479H79.0449L77.3464 23.9868H85.3894C86.2732 23.9868 86.8756 24.7409 86.7102 25.653V25.7033C86.5547 26.6274 85.7005 27.3744 84.8192 27.3744M150.215 27.3744C149.334 27.3744 148.734 26.6274 148.885 25.7033L150.6 15.5166C150.756 14.602 151.598 13.8479 152.484 13.8479C153.37 13.8479 153.973 14.602 153.807 15.5166L152.104 25.7033C151.951 26.6274 151.102 27.3744 150.218 27.3744M159.863 27.3744C158.982 27.3744 158.382 26.6274 158.532 25.7033L160.243 15.5166C160.396 14.602 161.248 13.8479 162.129 13.8479C163.011 13.8479 163.615 14.602 163.462 15.5166L161.752 25.7033C161.596 26.6274 160.747 27.3744 159.861 27.3744M30.2977 30.7404H1.3521C0.468297 30.7404 -0.129131 29.9935 0.0239291 29.0861L0.033804 29.0263C0.184395 28.1117 1.03116 27.372 1.92237 27.372H6.74623L9.00756 13.8455H4.18617C3.30731 13.8455 2.70248 13.1058 2.85554 12.1912L2.87035 12.1242C3.02588 11.2144 3.87018 10.4699 4.75645 10.4699H11.185C12.0712 10.4699 12.6687 11.2168 12.5131 12.1242L9.96049 27.372H30.868C31.7444 27.372 32.3467 28.1117 32.1937 29.0263L32.1838 29.0861C32.0283 29.9959 31.1815 30.7404 30.3002 30.7404M41.1971 30.7404H37.9878C37.1015 30.7404 36.5016 29.9935 36.6497 29.0861L36.6645 29.0263C36.82 28.1117 37.6619 27.372 38.5481 27.372H41.7649C42.6511 27.372 43.2461 28.1117 43.093 29.0263L43.0856 29.0861C42.935 29.9959 42.0784 30.7404 41.1971 30.7404ZM66.926 30.7404H47.633C46.7467 30.7404 46.1542 29.9935 46.3048 29.0861L46.3098 29.0263C46.4604 28.1117 47.3145 27.372 48.1983 27.372H56.2365L59.6408 7.09187H51.6027C50.7164 7.09187 50.1165 6.34732 50.272 5.43039L50.2819 5.37533C50.4399 4.45361 51.2817 3.70667 52.1656 3.70667H71.4659C72.3472 3.70667 72.9521 4.45361 72.7941 5.37533L72.7867 5.43039C72.6336 6.34732 71.7869 7.09187 70.9006 7.09187H62.8625L59.4532 27.372H67.4987C68.3776 27.372 68.9799 28.1117 68.8244 29.0263L68.812 29.0861C68.6565 29.9959 67.8122 30.7404 66.926 30.7404ZM90.6873 30.7404C89.8084 30.7404 89.2011 29.9935 89.3591 29.0861L93.3412 5.37533C93.4918 4.45361 94.341 3.70667 95.2248 3.70667H108.089C108.975 3.70667 109.575 4.45361 109.425 5.37533L106.023 25.6506L106.008 25.7009C105.877 26.4981 105.206 27.1805 104.455 27.3337L104.129 27.372H97.6886C96.8097 27.372 96.2049 26.625 96.3629 25.7009L96.3703 25.6506C96.5258 24.7385 97.3726 23.9844 98.2588 23.9844H103.083L105.917 7.09187H96.274L92.5808 29.0861C92.4302 29.9959 91.576 30.7404 90.6898 30.7404M117.71 7.08948L117.132 10.4675H129.999L130.574 7.08948H117.71ZM112.131 30.7404C111.249 30.7404 110.644 29.9935 110.8 29.0861L114.777 5.37533C114.932 4.45361 115.784 3.70667 116.663 3.70667H132.747C133.633 3.70667 134.233 4.45361 134.077 5.37533L134.065 5.43039L132.944 12.1266L132.932 12.1936C132.784 13.1105 131.932 13.8479 131.051 13.8479H116.574L114.022 29.0885C113.866 29.9983 113.012 30.7428 112.133 30.7428M121.778 30.7428C120.897 30.7428 120.299 29.9959 120.455 29.0885L121.946 20.1898H120.334L119.124 27.3959C118.969 28.3128 118.12 29.0622 117.238 29.0622C116.357 29.0622 115.757 28.3152 115.908 27.3959L117.335 18.8922L117.352 18.7964L117.367 18.7079C117.502 17.8963 118.337 17.2355 119.221 17.2355H122.435V17.2068C122.593 16.2899 123.445 15.5429 124.328 15.5429C125.212 15.5429 125.812 16.2899 125.659 17.2068L125.654 17.2355H128.871C129.752 17.2355 130.369 17.8963 130.229 18.7079L130.206 18.7964L130.197 18.8922L128.77 27.3959C128.617 28.3128 127.767 29.0622 126.881 29.0622C125.995 29.0622 125.402 28.3152 125.553 27.3959L126.765 20.1898H125.16L123.657 29.0885C123.509 29.9983 122.662 30.7428 121.776 30.7428M141.069 30.7428H137.852C136.973 30.7428 136.368 29.9959 136.526 29.0885L136.541 29.0287C136.689 28.1141 137.538 27.3744 138.422 27.3744H140.039L144.004 3.68033C144.155 2.76819 145.004 2.02604 145.888 2.02604H145.893C146.774 2.02604 147.374 2.77059 147.221 3.68033L142.965 29.0287V29.0885C142.802 29.9983 141.953 30.7428 141.069 30.7428ZM154.474 30.7428C153.59 30.7428 152.988 29.9959 153.138 29.0885L156.264 10.4723H153.054C152.163 10.4723 151.571 9.72534 151.724 8.81081L151.734 8.75814C151.884 7.84121 152.733 7.09427 153.62 7.09427H156.834L157.404 3.68033C157.56 2.76819 158.409 2.02604 159.295 2.02604C160.181 2.02604 160.781 2.77059 160.623 3.68033L160.053 7.09427H163.267C164.154 7.09427 164.754 7.84121 164.598 8.75814L164.591 8.81081C164.435 9.72534 163.583 10.4723 162.702 10.4723H159.485L156.362 29.0885C156.212 29.9983 155.355 30.7428 154.474 30.7428ZM165.729 30.7428C164.85 30.7428 164.245 29.9959 164.401 29.0885L165.544 22.275C165.699 21.3653 166.543 20.6111 167.432 20.6111C168.321 20.6111 168.916 21.3629 168.763 22.275L167.615 29.0885C167.464 29.9983 166.615 30.7428 165.729 30.7428ZM172.16 30.7428C171.273 30.7428 170.681 29.9959 170.834 29.0885L172.816 17.2331H167.997C167.116 17.2331 166.511 16.4814 166.667 15.5621L166.682 15.519C166.837 14.6044 167.679 13.8503 168.565 13.8503H173.392L173.959 10.4723H169.133C168.639 10.4723 168.229 10.2305 168 9.86659C167.817 9.56973 167.743 9.20822 167.807 8.81081L168.38 5.37772C168.531 4.45601 169.387 3.70906 170.271 3.70906C171.155 3.70906 171.752 4.45601 171.602 5.37772L171.31 7.09427H174.517L175.095 3.68033C175.253 2.76819 176.095 2.02604 176.981 2.02604C177.867 2.02604 178.47 2.77059 178.312 3.68033L177.741 7.09427H182.56C183.449 7.09427 184.044 7.84121 183.893 8.75814L183.889 8.81081C183.733 9.72534 182.881 10.4723 181.995 10.4723H177.164L176.608 13.8503H181.43C182.311 13.8503 182.916 14.6044 182.76 15.519L182.745 15.5621C182.59 16.4814 181.748 17.2331 180.862 17.2331H176.036L174.046 29.0885C173.9 29.9983 173.041 30.7428 172.157 30.7428M178.593 30.7428C177.712 30.7428 177.104 29.9959 177.262 29.0885L178.405 22.275C178.561 21.3653 179.413 20.6111 180.292 20.6111C181.17 20.6111 181.778 21.3629 181.62 22.275L180.479 29.0885C180.324 29.9983 179.474 30.7428 178.591 30.7428M199.135 30.7428H186.273C185.385 30.7428 184.79 29.9959 184.943 29.0885L184.95 29.0287C185.111 28.1141 185.957 27.3744 186.836 27.3744H192.472L194.173 17.2331H190.147C189.263 17.2331 188.668 16.4814 188.819 15.5621L188.833 15.519C188.981 14.6044 189.833 13.8503 190.719 13.8503H201.969C202.853 13.8503 203.453 14.6044 203.295 15.519V15.5621C203.137 16.4814 202.288 17.2331 201.402 17.2331H197.385L195.684 27.3744H199.703C200.587 27.3744 201.189 28.1141 201.029 29.0287L201.021 29.0885C200.873 29.9983 200.019 30.7428 199.135 30.7428ZM215.211 30.7428H205.569C204.682 30.7428 204.083 29.9959 204.238 29.0885L204.243 29.0287H204.245L207.361 10.4867H189.665C188.779 10.4867 188.187 9.7421 188.342 8.82996L188.349 8.7725C188.5 7.85558 189.349 7.10863 190.236 7.10863H207.924L208.489 3.67794C208.645 2.7658 209.496 2.02364 210.385 2.02364C211.274 2.02364 211.871 2.76819 211.711 3.67794L211.136 7.10863H219.181C220.063 7.10863 220.66 7.85318 220.507 8.7725V8.82996C220.349 9.7421 219.495 10.4867 218.611 10.4867H210.573L207.741 27.3744H215.787C216.666 27.3744 217.268 28.1141 217.107 29.0287L217.1 29.0885C216.949 29.9983 216.1 30.7428 215.209 30.7428M247.732 30.7428H225.225C224.664 30.7428 224.383 30.5489 224.435 30.2568C224.351 30.0126 224.412 29.7014 224.627 29.3519L230.251 20.6111H223.701C222.823 20.6111 222.22 19.8546 222.378 18.9449L222.388 18.8874C222.536 17.9777 223.388 17.2307 224.274 17.2307H253.22C254.099 17.2307 254.699 17.9777 254.548 18.8874L254.54 18.9449C254.382 19.8546 253.536 20.6111 252.647 20.6111H233.468L229.118 27.372H245.083C245.251 27.372 245.428 27.3863 245.606 27.4318L245.068 23.9868C244.93 23.0651 245.537 22.3205 246.421 22.3205C247.305 22.3205 248.149 23.0675 248.292 23.9868L249.085 29.0813C249.191 29.7828 248.862 30.3885 248.305 30.6351C248.161 30.7069 247.974 30.7452 247.734 30.7452M262.561 30.7452C261.678 30.7452 261.083 29.9983 261.233 29.0909L262.949 18.8922L260.352 21.2121C260.033 21.4946 259.651 21.6358 259.28 21.6358C258.863 21.6358 258.463 21.4586 258.192 21.1115C257.676 20.4531 257.804 19.4165 258.481 18.8132L267.82 10.4771H261.137C260.261 10.4771 259.663 9.73013 259.816 8.8156L259.821 8.76293C259.979 7.846 260.828 7.09905 261.705 7.09905H264.966L265.497 3.68512C265.647 2.77298 266.501 2.03082 267.385 2.03082C268.269 2.03082 268.864 2.77538 268.716 3.68512L268.183 7.09905H271.36C272.241 7.09905 272.839 7.846 272.688 8.76293L272.673 8.8156C272.673 9.56733 272.13 10.5728 271.16 11.5568L267.491 14.8367L270.454 18.6145C271.012 19.3303 270.923 20.41 270.254 21.0157L270.024 21.2144C269.726 21.4802 269.365 21.6071 269.002 21.6071C268.546 21.6071 268.091 21.4012 267.775 21.0014L266.151 18.9257L264.445 29.0957C264.289 30.0054 263.443 30.75 262.556 30.75M286.683 30.75H273.819C272.93 30.75 272.332 30.0031 272.483 29.0957L272.495 29.0359C272.653 28.1213 273.495 27.3816 274.386 27.3816H279.205L282.039 10.4795H277.216C276.329 10.4795 275.737 9.73252 275.885 8.81799L275.892 8.76532C276.043 7.8484 276.897 7.10145 277.781 7.10145H282.6L283.178 3.68752C283.328 2.77538 284.18 2.03322 285.061 2.03322C285.942 2.03322 286.547 2.77777 286.392 3.68752L285.822 7.10145H290.648C291.534 7.10145 292.129 7.8484 291.976 8.76532L291.969 8.81799C291.818 9.73252 290.964 10.4795 290.08 10.4795H285.256L282.422 27.3816H287.246C288.125 27.3816 288.735 28.1213 288.572 29.0359L288.564 29.0957C288.414 30.0054 287.56 30.75 286.681 30.75" fill="white"/>
</svg>