<svg xmlns="http://www.w3.org/2000/svg" width="216" height="141" viewBox="0 0 216 141" fill="none">
  <g filter="url(#filter0_d_1_690)">
    <path d="M139.552 98.7157H148.42L155.585 60.0723H144.33L130.627 85.7674L126.351 60.0723H115.221L108.067 98.7157H116.931L121.128 76.0619L124.682 98.7157H131.923L143.706 76.3052L139.552 98.7157Z" fill="white"/>
  </g>
  <g filter="url(#filter1_d_1_690)">
    <path d="M183.853 60.0723H174.985L167.82 98.7157H176.692L183.853 60.0723Z" fill="white"/>
  </g>
  <g filter="url(#filter2_d_1_690)">
    <path d="M64.1303 112.918C64.461 111.128 63.944 109.425 62.7049 108.242C61.728 107.319 60.4508 106.919 58.4096 106.919H52.7726L49.4619 124.684H54.2209L55.0305 120.347L57.2275 124.684H62.8531L59.4245 118.457C60.0707 118.244 60.7891 117.902 61.5721 117.267C63.085 116.032 63.8832 114.207 64.1303 112.918ZM59.3903 112.827C59.2649 113.481 58.7859 114.576 56.9462 114.576H56.0986L56.6764 111.459H57.8471C58.3032 111.459 58.9114 111.531 59.2041 111.881C59.4777 112.215 59.4169 112.698 59.3903 112.831V112.827Z" fill="white"/>
  </g>
  <g filter="url(#filter3_d_1_690)">
    <path d="M72.9946 124.684H77.7498L81.0567 106.919H76.2978L72.9946 124.684Z" fill="white"/>
  </g>
  <g filter="url(#filter4_d_1_690)">
    <path d="M107.908 106.919H103.153L101.415 116.268L97.8386 106.919H93.1215L89.8184 124.684H94.5773L96.3144 115.31L99.9634 124.684H104.612L107.908 106.919Z" fill="white"/>
  </g>
  <g filter="url(#filter5_d_1_690)">
    <path d="M122.971 124.684L125.427 111.455H128.411L129.251 106.919H118.551L117.714 111.455H120.672L118.216 124.684H122.971Z" fill="white"/>
  </g>
  <g filter="url(#filter6_d_1_690)">
    <path d="M139.879 106.919L136.568 124.684H141.331L144.63 106.919H139.879Z" fill="white"/>
  </g>
  <g filter="url(#filter7_d_1_690)">
    <path d="M163.54 124.684H168.189L171.492 106.919H166.725L164.992 116.268L161.415 106.919H156.698L153.395 124.684H158.154L159.899 115.302L163.54 124.684Z" fill="white"/>
  </g>
  <g filter="url(#filter8_d_1_690)">
    <path d="M187.761 114.774L186.917 119.301H192.656C191.699 120.047 190.547 120.48 189.407 120.48C188.095 120.48 187.088 120.066 186.419 119.256C185.723 118.427 185.438 117.176 185.662 115.986C186.024 114.029 188.069 111.124 191.315 111.124C193.405 111.124 194.192 112.459 194.371 112.865L194.618 113.367H199.772L199.59 112.333C199.114 109.554 196.245 106.589 191.896 106.589C186.784 106.589 181.888 110.645 180.972 115.633C180.501 118.104 181.056 120.431 182.515 122.183C184.005 123.974 186.328 125 188.897 125C193.972 125 198.837 121.031 199.742 116.15L200 114.766H187.764L187.761 114.774Z" fill="white"/>
  </g>
  <g filter="url(#filter9_d_1_690)">
    <path d="M37.3972 124.688L41.3465 102.304C45.4212 103.627 49.8153 104.323 54.4298 104.323C78.559 104.323 101.54 84.9005 105.661 61.0302C107.721 49.0589 104.889 37.7605 97.6898 29.1992C90.5172 20.6874 79.935 16 67.8894 16C43.7563 16 20.7713 35.4225 16.6585 59.2928C14.5945 71.2603 17.4187 82.5625 24.6217 91.1124C27.1038 94.0624 30.0117 96.5373 33.2274 98.5331L28.6167 124.688H37.3933H37.3972ZM48.6521 60.8743C49.8989 53.7197 56.7788 47.8956 64.0123 47.8956C67.1862 47.8956 69.9153 49.0665 71.7132 51.1954C73.515 53.3357 74.2029 56.2591 73.6632 59.4259C72.4278 66.5957 65.5403 72.4236 58.2955 72.4236C55.1292 72.4236 52.3962 71.2527 50.6059 69.1238C48.8042 66.9911 48.1124 64.0753 48.6559 60.9161V60.8819L48.6521 60.8743ZM45.8811 76.5902C49.1957 79.4794 53.5061 81.0685 58.2955 81.0685C69.5618 81.0685 80.2695 72.0131 82.1928 60.8895C83.1697 55.1681 81.7975 49.7432 78.3309 45.6108C74.8681 41.5013 69.7899 39.2431 64.0161 39.2431C53.4985 39.2431 43.4675 47.1391 40.6281 57.2476L40.514 57.2248L35.2191 87.2728C34.2423 86.4174 33.3034 85.5126 32.4634 84.5166C27.2331 78.3085 25.2071 69.964 26.7503 61.0264C30.0573 41.8472 48.5115 26.2378 67.8932 26.2378C76.8675 26.2378 84.6635 29.6326 89.8596 35.795C95.0822 42.0031 97.112 50.3476 95.5688 59.289C92.2618 78.4682 73.8076 94.0738 54.4374 94.0738C50.3892 94.0738 46.6072 93.3477 43.1634 92.0286L45.885 76.5902H45.8811Z" fill="white"/>
  </g>
  <defs>
    <filter id="filter0_d_1_690" x="92.0674" y="44.0723" width="79.5172" height="70.6436" filterUnits="userSpaceOnUse" color-interpolation-filters="sRGB">
      <feFlood flood-opacity="0" result="BackgroundImageFix"/>
      <feColorMatrix in="SourceAlpha" type="matrix" values="0 0 0 0 0 0 0 0 0 0 0 0 0 0 0 0 0 0 127 0" result="hardAlpha"/>
      <feOffset/>
      <feGaussianBlur stdDeviation="8"/>
      <feComposite in2="hardAlpha" operator="out"/>
      <feColorMatrix type="matrix" values="0 0 0 0 0.156863 0 0 0 0 0.156863 0 0 0 0 0.156863 0 0 0 0.3 0"/>
      <feBlend mode="normal" in2="BackgroundImageFix" result="effect1_dropShadow_1_690"/>
      <feBlend mode="normal" in="SourceGraphic" in2="effect1_dropShadow_1_690" result="shape"/>
    </filter>
    <filter id="filter1_d_1_690" x="151.82" y="44.0723" width="48.033" height="70.6436" filterUnits="userSpaceOnUse" color-interpolation-filters="sRGB">
      <feFlood flood-opacity="0" result="BackgroundImageFix"/>
      <feColorMatrix in="SourceAlpha" type="matrix" values="0 0 0 0 0 0 0 0 0 0 0 0 0 0 0 0 0 0 127 0" result="hardAlpha"/>
      <feOffset/>
      <feGaussianBlur stdDeviation="8"/>
      <feComposite in2="hardAlpha" operator="out"/>
      <feColorMatrix type="matrix" values="0 0 0 0 0.156863 0 0 0 0 0.156863 0 0 0 0 0.156863 0 0 0 0.3 0"/>
      <feBlend mode="normal" in2="BackgroundImageFix" result="effect1_dropShadow_1_690"/>
      <feBlend mode="normal" in="SourceGraphic" in2="effect1_dropShadow_1_690" result="shape"/>
    </filter>
    <filter id="filter2_d_1_690" x="33.4619" y="90.9194" width="46.7661" height="49.7651" filterUnits="userSpaceOnUse" color-interpolation-filters="sRGB">
      <feFlood flood-opacity="0" result="BackgroundImageFix"/>
      <feColorMatrix in="SourceAlpha" type="matrix" values="0 0 0 0 0 0 0 0 0 0 0 0 0 0 0 0 0 0 127 0" result="hardAlpha"/>
      <feOffset/>
      <feGaussianBlur stdDeviation="8"/>
      <feComposite in2="hardAlpha" operator="out"/>
      <feColorMatrix type="matrix" values="0 0 0 0 0.156863 0 0 0 0 0.156863 0 0 0 0 0.156863 0 0 0 0.3 0"/>
      <feBlend mode="normal" in2="BackgroundImageFix" result="effect1_dropShadow_1_690"/>
      <feBlend mode="normal" in="SourceGraphic" in2="effect1_dropShadow_1_690" result="shape"/>
    </filter>
    <filter id="filter3_d_1_690" x="56.9946" y="90.9194" width="40.0621" height="49.7651" filterUnits="userSpaceOnUse" color-interpolation-filters="sRGB">
      <feFlood flood-opacity="0" result="BackgroundImageFix"/>
      <feColorMatrix in="SourceAlpha" type="matrix" values="0 0 0 0 0 0 0 0 0 0 0 0 0 0 0 0 0 0 127 0" result="hardAlpha"/>
      <feOffset/>
      <feGaussianBlur stdDeviation="8"/>
      <feComposite in2="hardAlpha" operator="out"/>
      <feColorMatrix type="matrix" values="0 0 0 0 0.156863 0 0 0 0 0.156863 0 0 0 0 0.156863 0 0 0 0.3 0"/>
      <feBlend mode="normal" in2="BackgroundImageFix" result="effect1_dropShadow_1_690"/>
      <feBlend mode="normal" in="SourceGraphic" in2="effect1_dropShadow_1_690" result="shape"/>
    </filter>
    <filter id="filter4_d_1_690" x="73.8184" y="90.9194" width="50.0894" height="49.7651" filterUnits="userSpaceOnUse" color-interpolation-filters="sRGB">
      <feFlood flood-opacity="0" result="BackgroundImageFix"/>
      <feColorMatrix in="SourceAlpha" type="matrix" values="0 0 0 0 0 0 0 0 0 0 0 0 0 0 0 0 0 0 127 0" result="hardAlpha"/>
      <feOffset/>
      <feGaussianBlur stdDeviation="8"/>
      <feComposite in2="hardAlpha" operator="out"/>
      <feColorMatrix type="matrix" values="0 0 0 0 0.156863 0 0 0 0 0.156863 0 0 0 0 0.156863 0 0 0 0.3 0"/>
      <feBlend mode="normal" in2="BackgroundImageFix" result="effect1_dropShadow_1_690"/>
      <feBlend mode="normal" in="SourceGraphic" in2="effect1_dropShadow_1_690" result="shape"/>
    </filter>
    <filter id="filter5_d_1_690" x="101.714" y="90.9194" width="43.5363" height="49.7651" filterUnits="userSpaceOnUse" color-interpolation-filters="sRGB">
      <feFlood flood-opacity="0" result="BackgroundImageFix"/>
      <feColorMatrix in="SourceAlpha" type="matrix" values="0 0 0 0 0 0 0 0 0 0 0 0 0 0 0 0 0 0 127 0" result="hardAlpha"/>
      <feOffset/>
      <feGaussianBlur stdDeviation="8"/>
      <feComposite in2="hardAlpha" operator="out"/>
      <feColorMatrix type="matrix" values="0 0 0 0 0.156863 0 0 0 0 0.156863 0 0 0 0 0.156863 0 0 0 0.3 0"/>
      <feBlend mode="normal" in2="BackgroundImageFix" result="effect1_dropShadow_1_690"/>
      <feBlend mode="normal" in="SourceGraphic" in2="effect1_dropShadow_1_690" result="shape"/>
    </filter>
    <filter id="filter6_d_1_690" x="120.568" y="90.9194" width="40.0621" height="49.7651" filterUnits="userSpaceOnUse" color-interpolation-filters="sRGB">
      <feFlood flood-opacity="0" result="BackgroundImageFix"/>
      <feColorMatrix in="SourceAlpha" type="matrix" values="0 0 0 0 0 0 0 0 0 0 0 0 0 0 0 0 0 0 127 0" result="hardAlpha"/>
      <feOffset/>
      <feGaussianBlur stdDeviation="8"/>
      <feComposite in2="hardAlpha" operator="out"/>
      <feColorMatrix type="matrix" values="0 0 0 0 0.156863 0 0 0 0 0.156863 0 0 0 0 0.156863 0 0 0 0.3 0"/>
      <feBlend mode="normal" in2="BackgroundImageFix" result="effect1_dropShadow_1_690"/>
      <feBlend mode="normal" in="SourceGraphic" in2="effect1_dropShadow_1_690" result="shape"/>
    </filter>
    <filter id="filter7_d_1_690" x="137.395" y="90.9194" width="50.0969" height="49.7651" filterUnits="userSpaceOnUse" color-interpolation-filters="sRGB">
      <feFlood flood-opacity="0" result="BackgroundImageFix"/>
      <feColorMatrix in="SourceAlpha" type="matrix" values="0 0 0 0 0 0 0 0 0 0 0 0 0 0 0 0 0 0 127 0" result="hardAlpha"/>
      <feOffset/>
      <feGaussianBlur stdDeviation="8"/>
      <feComposite in2="hardAlpha" operator="out"/>
      <feColorMatrix type="matrix" values="0 0 0 0 0.156863 0 0 0 0 0.156863 0 0 0 0 0.156863 0 0 0 0.3 0"/>
      <feBlend mode="normal" in2="BackgroundImageFix" result="effect1_dropShadow_1_690"/>
      <feBlend mode="normal" in="SourceGraphic" in2="effect1_dropShadow_1_690" result="shape"/>
    </filter>
    <filter id="filter8_d_1_690" x="164.808" y="90.5889" width="51.192" height="50.4111" filterUnits="userSpaceOnUse" color-interpolation-filters="sRGB">
      <feFlood flood-opacity="0" result="BackgroundImageFix"/>
      <feColorMatrix in="SourceAlpha" type="matrix" values="0 0 0 0 0 0 0 0 0 0 0 0 0 0 0 0 0 0 127 0" result="hardAlpha"/>
      <feOffset/>
      <feGaussianBlur stdDeviation="8"/>
      <feComposite in2="hardAlpha" operator="out"/>
      <feColorMatrix type="matrix" values="0 0 0 0 0.156863 0 0 0 0 0.156863 0 0 0 0 0.156863 0 0 0 0.3 0"/>
      <feBlend mode="normal" in2="BackgroundImageFix" result="effect1_dropShadow_1_690"/>
      <feBlend mode="normal" in="SourceGraphic" in2="effect1_dropShadow_1_690" result="shape"/>
    </filter>
    <filter id="filter9_d_1_690" x="0" y="0" width="122.316" height="140.688" filterUnits="userSpaceOnUse" color-interpolation-filters="sRGB">
      <feFlood flood-opacity="0" result="BackgroundImageFix"/>
      <feColorMatrix in="SourceAlpha" type="matrix" values="0 0 0 0 0 0 0 0 0 0 0 0 0 0 0 0 0 0 127 0" result="hardAlpha"/>
      <feOffset/>
      <feGaussianBlur stdDeviation="8"/>
      <feComposite in2="hardAlpha" operator="out"/>
      <feColorMatrix type="matrix" values="0 0 0 0 0.156863 0 0 0 0 0.156863 0 0 0 0 0.156863 0 0 0 0.3 0"/>
      <feBlend mode="normal" in2="BackgroundImageFix" result="effect1_dropShadow_1_690"/>
      <feBlend mode="normal" in="SourceGraphic" in2="effect1_dropShadow_1_690" result="shape"/>
    </filter>
  </defs>
</svg>