<svg width="407" height="143" viewBox="0 0 407 143" fill="none" xmlns="http://www.w3.org/2000/svg">
<g filter="url(#filter0_d_1_689)">
<path d="M36.9019 16.426L41.0179 20.668C37.5739 22.306 33.4579 23.734 29.5939 24.868V30.538H39.8419V35.326H29.5939V43.6H39.9259V48.43H29.5939V51.748H24.5539V19.786L27.2839 20.794C30.8539 19.576 34.4659 17.896 36.9019 16.426ZM59.6239 19.282V43.936C59.6239 46.288 59.1619 47.926 57.6079 48.808C56.0119 49.69 53.9119 49.774 51.0559 49.774C50.8459 48.346 49.9639 45.868 49.1659 44.524C51.0979 44.608 53.1139 44.608 53.7439 44.608C54.3739 44.566 54.5419 44.356 54.5419 43.81V24.238H47.1499V55.528H42.1099V19.282H59.6239ZM79.1959 34.36H84.7819V30.832H79.1959V32.428C79.1959 33.058 79.1959 33.688 79.1959 34.36ZM90.3259 23.062H79.1959V26.422H90.3259V23.062ZM95.2819 34.36V46.876C95.2819 48.556 95.0719 49.69 94.0639 50.362C93.1399 51.034 91.9219 51.118 90.2419 51.118C90.1159 49.942 89.6119 48.304 89.0659 47.212C89.9059 47.254 90.6619 47.254 90.9139 47.254C91.2499 47.254 91.3339 47.128 91.3339 46.792V38.476H88.9399V55.57H84.7819V38.476H82.5559V51.244H78.9439V39.694C78.5659 44.986 77.6419 50.74 75.5419 54.856C74.7859 53.974 72.8539 52.588 71.8459 52.084C74.5339 46.456 74.7439 38.308 74.7439 32.428V18.61H94.9879V30.832H88.9399V34.36H95.2819ZM101.876 20.5V44.818H97.2139V20.5H101.876ZM105.404 17.224H110.192V49.732C110.192 52.42 109.646 53.806 108.134 54.604C106.58 55.402 104.144 55.57 100.91 55.57C100.742 54.184 100.028 52 99.3979 50.53C101.582 50.614 103.766 50.614 104.48 50.614C105.152 50.572 105.404 50.404 105.404 49.732V17.224ZM134.594 29.026H150.344C147.11 26.59 144.212 23.86 142.28 21.256C140.474 23.818 137.786 26.548 134.594 29.026ZM132.536 33.604V30.538C130.31 32.134 127.874 33.562 125.438 34.738C124.85 33.52 123.548 31.63 122.498 30.538C129.638 27.388 136.316 21.424 139.466 16.468H144.674C149.126 22.642 155.804 27.43 162.44 29.782C161.18 31.084 160.088 32.89 159.206 34.36C156.896 33.268 154.46 31.882 152.15 30.286V33.604H132.536ZM125.102 41.71V37.09H159.836V41.71H141.02C139.802 44.188 138.416 46.792 137.156 49.144C141.188 49.018 145.514 48.85 149.798 48.682C148.496 47.17 147.068 45.658 145.682 44.398L150.092 42.088C153.83 45.364 157.736 49.732 159.71 52.882L155.048 55.696C154.628 54.898 154.04 54.016 153.368 53.092C143.498 53.638 133.124 54.058 125.984 54.394L125.312 49.522L131.654 49.312C132.788 46.96 133.964 44.188 134.846 41.71H125.102ZM191.672 40.156L188.648 44.23C187.766 43.054 186.338 41.374 184.91 39.82V55.654H179.954V41.164C178.274 42.718 176.51 44.104 174.746 45.196C174.326 43.852 173.15 41.416 172.394 40.45C176.972 37.972 181.382 33.562 184.112 28.732H173.99V24.196H179.954V16.468H184.91V24.196H186.8L187.682 23.986L190.496 25.792C189.236 28.984 187.556 32.008 185.54 34.78C187.556 36.418 190.79 39.316 191.672 40.156ZM203.768 49.564H212.714V54.436H188.942V49.564H198.644V34.192H190.664V29.362H198.644V16.804H203.768V29.362H211.706V34.192H203.768V49.564ZM245.844 42.214C245.508 43.432 245.256 44.776 245.256 45.7C245.256 47.548 246.516 48.934 251.01 48.934C253.824 48.934 256.722 48.64 259.746 48.094L259.536 53.428C257.142 53.764 254.328 54.058 250.968 54.058C243.912 54.058 240.09 51.622 240.09 47.38C240.09 45.406 240.468 43.39 240.804 41.752L245.844 42.214ZM241.098 18.946C240.762 20.122 240.342 22.012 240.174 22.936C240.09 23.398 239.964 23.944 239.838 24.49C242.19 24.154 244.584 23.692 246.894 23.146V28.396C244.374 28.984 241.518 29.446 238.704 29.782C238.326 31.588 237.906 33.478 237.444 35.2C235.89 41.08 233.118 49.648 230.766 54.646L224.928 52.672C227.448 48.43 230.64 39.652 232.194 33.772C232.488 32.638 232.782 31.42 233.076 30.244C232.11 30.286 231.186 30.328 230.304 30.328C228.246 30.328 226.692 30.244 225.222 30.16L225.096 24.91C227.238 25.162 228.624 25.246 230.388 25.246C231.606 25.246 232.866 25.204 234.168 25.12C234.336 24.196 234.462 23.398 234.546 22.726C234.714 21.172 234.798 19.45 234.672 18.442L241.098 18.946ZM243.576 31.672C245.928 31.42 248.91 31.252 251.64 31.252C254.034 31.252 256.554 31.378 259.032 31.63L258.906 36.67C256.806 36.418 254.244 36.124 251.682 36.124C248.784 36.124 246.222 36.25 243.576 36.586V31.672ZM254.538 20.164C255.588 21.718 257.1 24.364 257.856 25.918L254.496 27.388C253.656 25.666 252.354 23.146 251.22 21.55L254.538 20.164ZM259.494 18.274C260.628 19.828 262.182 22.516 262.896 23.986L259.578 25.414C258.696 23.65 257.352 21.214 256.176 19.618L259.494 18.274ZM303.967 18.61C303.841 19.534 303.799 20.542 303.757 21.466C303.757 22.348 303.757 24.532 303.757 26.842C306.109 26.674 308.335 26.422 310.057 26.086L310.015 31.546C308.335 31.756 306.151 31.924 303.799 32.05C303.799 32.764 303.799 33.394 303.799 33.814C303.799 43.726 303.043 49.816 294.643 55.15L289.813 51.328C291.409 50.614 293.509 49.27 294.685 47.968C297.919 44.608 298.591 40.87 298.591 33.772C298.591 33.352 298.591 32.848 298.591 32.26C296.995 32.302 295.441 32.344 293.887 32.344C292.081 32.344 289.477 32.218 287.419 32.134V26.8C289.477 27.094 291.535 27.262 293.761 27.262C295.273 27.262 296.911 27.22 298.507 27.178C298.465 24.826 298.423 22.642 298.339 21.508C298.255 20.458 298.045 19.282 297.877 18.61H303.967ZM283.093 19.324C282.715 20.332 282.295 21.844 282.085 22.726C281.035 27.388 279.565 36.208 280.699 41.416C281.245 40.114 282.001 38.098 282.715 36.544L285.319 38.224C284.101 41.836 282.967 46.078 282.463 48.472C282.295 49.102 282.211 50.026 282.211 50.53C282.211 50.95 282.253 51.664 282.295 52.252L277.633 52.714C276.709 50.194 275.239 44.314 275.239 39.106C275.239 32.218 276.079 25.75 276.583 22.348C276.793 21.172 276.835 19.744 276.877 18.694L283.093 19.324ZM330.725 19.156C332.321 23.524 334.253 27.556 335.975 30.79C339.041 28.984 342.023 27.472 343.997 26.338C345.551 25.456 346.769 24.7 347.903 23.818L350.549 28.774C349.205 29.53 347.861 30.244 346.349 31C343.703 32.302 339.797 34.15 335.933 36.628C332.447 38.938 330.095 41.332 330.095 44.272C330.095 47.296 333.035 48.892 338.873 48.892C343.157 48.892 348.827 48.22 352.565 47.38L352.481 53.386C348.911 54.016 344.459 54.478 338.999 54.478C330.641 54.478 324.299 52.126 324.299 44.86C324.299 40.24 327.239 36.796 331.271 33.814C329.339 30.244 327.323 25.708 325.433 21.298L330.725 19.156ZM351.011 18.526C352.061 20.038 353.573 22.726 354.371 24.28L350.969 25.708C350.129 23.986 348.827 21.508 347.693 19.87L351.011 18.526ZM356.009 16.594C357.101 18.19 358.655 20.878 359.411 22.348L356.051 23.776C355.169 22.012 353.825 19.576 352.691 17.98L356.009 16.594ZM374.065 54.898C371.503 51.748 367.933 48.136 365.035 45.616L369.403 41.836C372.385 44.272 376.459 48.43 378.559 51.034L374.065 54.898ZM28.7808 87.426L32.8968 91.668C29.4528 93.306 25.3368 94.734 21.4728 95.868V101.538H31.7208V106.326H21.4728V114.6H31.8048V119.43H21.4728V122.748H16.4328V90.786L19.1628 91.794C22.7328 90.576 26.3448 88.896 28.7808 87.426ZM51.5028 90.282V114.936C51.5028 117.288 51.0408 118.926 49.4868 119.808C47.8908 120.69 45.7908 120.774 42.9348 120.774C42.7248 119.346 41.8428 116.868 41.0448 115.524C42.9768 115.608 44.9928 115.608 45.6228 115.608C46.2528 115.566 46.4208 115.356 46.4208 114.81V95.238H39.0288V126.528H33.9888V90.282H51.5028ZM71.0748 105.36H76.6608V101.832H71.0748V103.428C71.0748 104.058 71.0748 104.688 71.0748 105.36ZM82.2048 94.062H71.0748V97.422H82.2048V94.062ZM87.1608 105.36V117.876C87.1608 119.556 86.9508 120.69 85.9428 121.362C85.0188 122.034 83.8008 122.118 82.1208 122.118C81.9948 120.942 81.4908 119.304 80.9448 118.212C81.7848 118.254 82.5408 118.254 82.7928 118.254C83.1288 118.254 83.2128 118.128 83.2128 117.792V109.476H80.8188V126.57H76.6608V109.476H74.4348V122.244H70.8228V110.694C70.4448 115.986 69.5208 121.74 67.4208 125.856C66.6648 124.974 64.7328 123.588 63.7248 123.084C66.4128 117.456 66.6228 109.308 66.6228 103.428V89.61H86.8668V101.832H80.8188V105.36H87.1608ZM93.7548 91.5V115.818H89.0928V91.5H93.7548ZM97.2828 88.224H102.071V120.732C102.071 123.42 101.525 124.806 100.013 125.604C98.4588 126.402 96.0228 126.57 92.7888 126.57C92.6208 125.184 91.9068 123 91.2768 121.53C93.4608 121.614 95.6448 121.614 96.3588 121.614C97.0308 121.572 97.2828 121.404 97.2828 120.732V88.224ZM136.923 113.214C136.587 114.432 136.335 115.776 136.335 116.7C136.335 118.548 137.595 119.934 142.089 119.934C144.903 119.934 147.801 119.64 150.825 119.094L150.615 124.428C148.221 124.764 145.407 125.058 142.047 125.058C134.991 125.058 131.169 122.622 131.169 118.38C131.169 116.406 131.547 114.39 131.883 112.752L136.923 113.214ZM132.177 89.946C131.841 91.122 131.421 93.012 131.253 93.936C131.169 94.398 131.043 94.944 130.917 95.49C133.269 95.154 135.663 94.692 137.973 94.146V99.396C135.453 99.984 132.597 100.446 129.783 100.782C129.405 102.588 128.985 104.478 128.523 106.2C126.969 112.08 124.197 120.648 121.845 125.646L116.007 123.672C118.527 119.43 121.719 110.652 123.273 104.772C123.567 103.638 123.861 102.42 124.155 101.244C123.189 101.286 122.265 101.328 121.383 101.328C119.325 101.328 117.771 101.244 116.301 101.16L116.175 95.91C118.317 96.162 119.703 96.246 121.467 96.246C122.685 96.246 123.945 96.204 125.247 96.12C125.415 95.196 125.541 94.398 125.625 93.726C125.793 92.172 125.877 90.45 125.751 89.442L132.177 89.946ZM134.655 102.672C137.007 102.42 139.989 102.252 142.719 102.252C145.113 102.252 147.633 102.378 150.111 102.63L149.985 107.67C147.885 107.418 145.323 107.124 142.761 107.124C139.863 107.124 137.301 107.25 134.655 107.586V102.672ZM145.617 91.164C146.667 92.718 148.179 95.364 148.935 96.918L145.575 98.388C144.735 96.666 143.433 94.146 142.299 92.55L145.617 91.164ZM150.573 89.274C151.707 90.828 153.261 93.516 153.975 94.986L150.657 96.414C149.775 94.65 148.431 92.214 147.255 90.618L150.573 89.274ZM195.046 89.61C194.92 90.534 194.878 91.542 194.836 92.466C194.836 93.348 194.836 95.532 194.836 97.842C197.188 97.674 199.414 97.422 201.136 97.086L201.094 102.546C199.414 102.756 197.23 102.924 194.878 103.05C194.878 103.764 194.878 104.394 194.878 104.814C194.878 114.726 194.122 120.816 185.722 126.15L180.892 122.328C182.488 121.614 184.588 120.27 185.764 118.968C188.998 115.608 189.67 111.87 189.67 104.772C189.67 104.352 189.67 103.848 189.67 103.26C188.074 103.302 186.52 103.344 184.966 103.344C183.16 103.344 180.556 103.218 178.498 103.134V97.8C180.556 98.094 182.614 98.262 184.84 98.262C186.352 98.262 187.99 98.22 189.586 98.178C189.544 95.826 189.502 93.642 189.418 92.508C189.334 91.458 189.124 90.282 188.956 89.61H195.046ZM174.172 90.324C173.794 91.332 173.374 92.844 173.164 93.726C172.114 98.388 170.644 107.208 171.778 112.416C172.324 111.114 173.08 109.098 173.794 107.544L176.398 109.224C175.18 112.836 174.046 117.078 173.542 119.472C173.374 120.102 173.29 121.026 173.29 121.53C173.29 121.95 173.332 122.664 173.374 123.252L168.712 123.714C167.788 121.194 166.318 115.314 166.318 110.106C166.318 103.218 167.158 96.75 167.662 93.348C167.872 92.172 167.914 90.744 167.956 89.694L174.172 90.324ZM234.703 93.306C235.879 95.07 237.727 98.136 238.651 100.068L234.913 101.706C233.653 99.018 232.561 97.002 231.049 94.86L234.703 93.306ZM240.331 90.996C241.549 92.718 243.481 95.7 244.405 97.59L240.751 99.354C239.407 96.708 238.273 94.776 236.719 92.676L240.331 90.996ZM223.867 89.946C223.615 91.71 223.405 93.852 223.321 95.532C223.111 100.068 222.775 109.434 222.775 114.684C222.775 118.926 225.337 120.312 228.613 120.312C235.543 120.312 239.911 116.28 242.977 111.702L246.799 116.364C244.069 120.396 238.105 125.982 228.529 125.982C221.641 125.982 217.231 122.958 217.231 115.818C217.231 110.19 217.609 99.144 217.609 95.532C217.609 93.516 217.441 91.5 217.105 89.862L223.867 89.946ZM276.214 101.958C274.954 100.656 273.148 99.018 271.636 97.926L275.332 95.196C276.55 95.994 278.944 98.094 279.952 99.228L276.214 101.958ZM267.604 98.514C268.024 99.27 268.57 100.362 268.864 100.992C269.326 101.832 269.872 102.966 270.46 104.184C274.87 102.378 279.28 100.74 282.43 100.74C288.52 100.74 291.292 104.52 291.292 108.216C291.292 113.382 288.436 116.616 282.136 116.616C280.33 116.616 278.104 116.028 276.886 115.566L277.012 110.736C278.524 111.408 280.372 111.87 281.758 111.87C284.656 111.87 286.084 110.4 286.084 108.216C286.084 106.83 284.824 105.402 282.22 105.402C279.826 105.402 276.088 106.746 272.434 108.342C272.812 109.224 273.19 110.064 273.484 110.778C275.08 114.474 277.558 121.74 278.734 125.478L273.442 126.738C272.434 122.538 270.418 116.7 268.864 112.836C268.528 112.08 268.192 111.282 267.814 110.484C265.042 111.828 262.648 113.088 261.514 113.592L259.12 108.51C260.716 108.132 262.27 107.628 262.858 107.376C263.824 106.998 264.79 106.578 265.84 106.158C265.294 105.108 264.79 104.142 264.37 103.428C263.908 102.63 263.152 101.412 262.396 100.53L267.604 98.514ZM321.459 89.19C321.123 90.534 320.577 92.676 319.947 94.944C322.005 94.566 323.979 94.104 325.617 93.6L325.785 98.472C323.853 98.976 321.249 99.522 318.435 99.942C316.419 105.822 312.849 113.172 309.447 117.918L304.365 115.314C307.683 111.198 311.085 105.024 312.933 100.488C312.177 100.53 311.463 100.53 310.749 100.53C309.027 100.53 307.305 100.488 305.499 100.362L305.121 95.49C306.927 95.7 309.153 95.784 310.707 95.784C311.967 95.784 313.227 95.742 314.529 95.616C315.117 93.306 315.579 90.786 315.663 88.602L321.459 89.19ZM319.275 118.254C319.275 119.808 320.577 120.858 322.887 120.858C325.785 120.858 326.667 119.262 326.667 116.952C326.667 116.7 326.667 116.448 326.667 116.112C325.575 115.86 324.441 115.692 323.265 115.692C320.829 115.692 319.275 116.784 319.275 118.254ZM331.287 102.252C331.161 104.016 331.245 105.78 331.287 107.628C331.329 108.846 331.455 110.862 331.539 112.962C335.151 114.306 338.091 116.406 340.233 118.338L337.419 122.832C335.949 121.488 334.059 119.724 331.749 118.338C331.749 118.464 331.749 118.632 331.749 118.758C331.749 122.664 329.607 125.688 323.643 125.688C318.435 125.688 314.319 123.378 314.319 118.758C314.319 114.642 317.763 111.492 323.601 111.492C324.609 111.492 325.533 111.576 326.499 111.66C326.331 108.552 326.121 104.814 326.037 102.252H331.287ZM338.511 104.478C336.075 102.546 331.287 99.816 328.431 98.514L331.119 94.356C334.143 95.658 339.351 98.514 341.493 100.068L338.511 104.478ZM361.847 92.97C361.553 94.482 361.343 96.918 361.343 98.094C361.301 100.824 361.343 103.974 361.595 106.998C362.183 113.046 363.443 117.204 366.089 117.204C368.063 117.204 369.743 112.29 370.541 108.93L374.741 114.054C371.969 121.362 369.323 123.924 365.963 123.924C361.343 123.924 357.353 119.766 356.177 108.51C355.757 104.646 355.715 99.732 355.715 97.17C355.715 95.994 355.631 94.188 355.379 92.886L361.847 92.97ZM382.847 93.936C386.837 98.766 390.029 109.266 390.491 115.692L384.989 117.834C384.317 111.072 382.091 100.866 377.513 95.658L382.847 93.936Z" fill="white"/>
</g>
<defs>
<filter id="filter0_d_1_689" x="0.432739" y="0.425781" width="406.059" height="142.312" filterUnits="userSpaceOnUse" color-interpolation-filters="sRGB">
<feFlood flood-opacity="0" result="BackgroundImageFix"/>
<feColorMatrix in="SourceAlpha" type="matrix" values="0 0 0 0 0 0 0 0 0 0 0 0 0 0 0 0 0 0 127 0" result="hardAlpha"/>
<feOffset/>
<feGaussianBlur stdDeviation="8"/>
<feComposite in2="hardAlpha" operator="out"/>
<feColorMatrix type="matrix" values="0 0 0 0 0.156863 0 0 0 0 0.156863 0 0 0 0 0.156863 0 0 0 0.3 0"/>
<feBlend mode="normal" in2="BackgroundImageFix" result="effect1_dropShadow_1_689"/>
<feBlend mode="normal" in="SourceGraphic" in2="effect1_dropShadow_1_689" result="shape"/>
</filter>
</defs>
</svg>