<svg width="238" height="94" viewBox="0 0 238 94" fill="none" xmlns="http://www.w3.org/2000/svg">
<g filter="url(#filter0_d_1_1243)">
<path d="M22.2953 24.224H29.4253V26.892H22.2953V24.224ZM22.2953 31.446H29.4713V34.091H22.2953V31.446ZM37.4983 18.037H40.2813V31.63C40.2813 32.918 40.0513 33.815 39.1773 34.298C38.3033 34.804 37.1533 34.873 35.5893 34.873C35.4743 34.045 34.9683 32.688 34.5543 31.929C35.5893 31.975 36.7163 31.975 37.0613 31.975C37.3833 31.975 37.4983 31.86 37.4983 31.538V18.037ZM20.9843 18.313L23.7673 19.348V35.931H20.9843V18.313ZM27.7923 16.473L30.0463 18.819C27.7923 19.877 25.0093 20.797 22.5943 21.464C22.4333 20.82 21.9963 19.785 21.6513 19.141C23.8363 18.474 26.2283 17.393 27.7923 16.473ZM30.6443 18.037H38.9473V20.774H33.4273V38.001H30.6443V18.037ZM60.8433 18.704H63.4193V32.113H60.8433V18.704ZM65.3513 16.91H67.9963V34.827C67.9963 36.299 67.6973 37.035 66.8693 37.495C66.0183 37.932 64.6613 38.024 62.8903 38.024C62.7753 37.265 62.4073 36.046 62.0393 35.264C63.2353 35.31 64.4543 35.287 64.8453 35.287C65.2133 35.287 65.3513 35.172 65.3513 34.804V16.91ZM53.9893 24.293H56.2893V38.047H53.9893V24.293ZM57.6003 26.363H59.8083V33.24C59.8083 34.16 59.6933 34.781 59.1413 35.149C58.5893 35.54 57.9223 35.586 57.0023 35.586C56.9563 34.942 56.6573 34.022 56.3583 33.424C56.8413 33.447 57.2323 33.447 57.3933 33.447C57.5543 33.447 57.6003 33.401 57.6003 33.194V26.363ZM48.4693 17.669H50.9303V25.282C50.9303 28.847 50.6313 34.229 48.9063 37.633C48.4923 37.173 47.4343 36.368 46.8593 36.092C48.3773 33.033 48.4693 28.525 48.4693 25.282V17.669ZM49.7343 17.669H59.6473V24.408H49.7343V21.97H57.0483V20.13H49.7343V17.669ZM50.7923 26.363H58.7273V28.617H52.7933V35.655H50.7923V26.363ZM76.1613 34.689C80.2783 34.574 86.6723 34.344 92.4683 34.091L92.3763 36.621C86.7413 36.943 80.6693 37.219 76.5293 37.38L76.1613 34.689ZM76.0463 27.835H95.1823V30.411H76.0463V27.835ZM80.1403 23.419H90.9273V25.949H80.1403V23.419ZM81.6813 29.514L84.8323 30.388C83.7513 32.55 82.5093 34.942 81.4743 36.483L79.0593 35.678C80.0023 33.999 81.1063 31.446 81.6813 29.514ZM87.3853 31.883L89.8233 30.618C91.8933 32.389 94.0323 34.804 95.0903 36.552L92.5373 38.093C91.5713 36.345 89.3633 33.723 87.3853 31.883ZM85.5223 19.164C83.6593 21.786 80.0713 24.73 76.2533 26.547C75.9313 25.88 75.1953 24.845 74.6203 24.247C78.5533 22.522 82.2333 19.233 83.9353 16.519H86.8563C89.2943 19.9 92.9513 22.522 96.6083 23.833C95.9413 24.523 95.3203 25.512 94.8143 26.34C91.3643 24.73 87.4773 21.832 85.5223 19.164ZM111.052 34.712H124.162V37.426H111.052V34.712ZM111.995 23.603H123.61V26.248H111.995V23.603ZM116.388 16.703H119.217V36.023H116.388V16.703ZM102.795 20.728H110.339V23.235H102.795V20.728ZM106.084 28.594L108.821 25.328V38.093H106.084V28.594ZM106.084 16.496H108.821V21.901H106.084V16.496ZM108.545 26.11C109.35 26.662 111.949 28.962 112.57 29.537L110.891 31.768C109.994 30.572 108.062 28.456 107.027 27.444L108.545 26.11ZM109.327 20.728H109.879L110.362 20.636L111.903 21.648C110.155 26.133 106.682 30.158 103.255 32.32C103.002 31.584 102.358 30.227 101.944 29.698C105.072 27.996 108.108 24.615 109.327 21.234V20.728ZM139.614 17.922C139.453 18.543 139.223 19.578 139.108 20.084C138.786 21.648 138.234 24.477 137.613 26.8C136.785 30.02 135.244 34.735 133.979 37.449L130.759 36.368C132.139 34.068 133.887 29.238 134.738 26.018C135.336 23.856 135.865 21.349 136.026 19.969C136.141 19.118 136.164 18.175 136.095 17.646L139.614 17.922ZM133.749 21.349C136.555 21.349 139.798 20.935 142.788 20.222V23.097C139.936 23.764 136.325 24.132 133.726 24.132C132.599 24.132 131.748 24.086 130.943 24.04L130.851 21.188C132.047 21.326 132.806 21.349 133.749 21.349ZM140.971 24.891C142.259 24.753 143.892 24.638 145.41 24.638C146.721 24.638 148.101 24.707 149.435 24.845L149.389 27.605C148.216 27.467 146.813 27.329 145.433 27.329C143.823 27.329 142.42 27.398 140.971 27.582V24.891ZM142.213 30.664C142.052 31.308 141.914 32.067 141.914 32.573C141.914 33.585 142.581 34.344 145.065 34.344C146.583 34.344 148.193 34.16 149.826 33.861L149.711 36.805C148.423 36.966 146.882 37.15 145.042 37.15C141.155 37.15 139.085 35.793 139.085 33.47C139.085 32.412 139.269 31.308 139.476 30.388L142.213 30.664ZM146.974 18.589C147.572 19.417 148.377 20.889 148.814 21.74L146.974 22.522C146.491 21.579 145.778 20.222 145.157 19.325L146.974 18.589ZM149.711 17.531C150.309 18.405 151.16 19.854 151.574 20.682L149.734 21.464C149.274 20.498 148.515 19.164 147.894 18.29L149.711 17.531ZM174.065 17.715C173.973 18.221 173.95 18.773 173.95 19.302C173.904 20.36 173.95 24.707 173.95 26.064C173.95 31.469 173.536 34.827 168.959 37.725L166.291 35.655C167.188 35.264 168.338 34.528 168.982 33.815C170.73 31.975 171.121 29.905 171.121 26.041C171.121 24.316 171.075 20.59 170.96 19.302C170.914 18.75 170.799 18.083 170.707 17.715H174.065ZM164.98 22.223C166.107 22.384 167.234 22.453 168.476 22.453C171.443 22.453 175.123 22.246 177.377 21.832V24.822C175.192 25.075 171.65 25.259 168.545 25.259C167.533 25.259 166.13 25.19 164.98 25.121V22.223ZM162.611 18.106C162.427 18.681 162.197 19.509 162.082 19.992C161.507 22.545 160.679 27.375 161.3 30.227C161.599 29.514 162.036 28.387 162.404 27.559L163.853 28.479C163.163 30.457 162.565 32.757 162.289 34.068C162.197 34.436 162.128 34.942 162.151 35.195C162.151 35.448 162.174 35.839 162.197 36.161L159.621 36.414C159.115 35.011 158.31 31.814 158.31 28.962C158.31 25.19 158.77 21.648 159.069 19.762C159.161 19.141 159.184 18.359 159.207 17.784L162.611 18.106ZM199.551 23.281C198.838 23.695 198.102 24.086 197.274 24.5C195.825 25.236 193.663 26.225 191.57 27.605C189.661 28.847 188.373 30.181 188.373 31.768C188.373 33.424 189.96 34.321 193.157 34.321C195.526 34.321 198.631 33.953 200.678 33.47L200.632 36.782C198.677 37.127 196.239 37.357 193.249 37.357C188.649 37.357 185.199 36.069 185.199 32.113C185.199 29.192 187.315 27.145 190.029 25.351C192.214 23.925 194.56 22.775 195.986 21.97C196.837 21.464 197.504 21.073 198.102 20.567L199.551 23.281ZM188.695 18.014C189.822 21.073 191.248 23.856 192.329 25.742L189.707 27.283C188.465 25.19 187.085 22.177 185.797 19.21L188.695 18.014ZM199.827 17.669C200.402 18.52 201.207 19.969 201.644 20.82L199.804 21.625C199.321 20.682 198.631 19.302 197.987 18.428L199.827 17.669ZM202.541 16.634C203.139 17.485 203.99 18.957 204.404 19.762L202.587 20.544C202.104 19.601 201.368 18.244 200.724 17.37L202.541 16.634ZM212.452 37.587C211.049 35.885 209.094 33.907 207.484 32.527L209.899 30.457C211.532 31.791 213.74 34.045 214.913 35.471L212.452 37.587ZM17.848 63.224H24.978V65.892H17.848V63.224ZM17.848 70.446H25.024V73.091H17.848V70.446ZM33.051 57.037H35.834V70.63C35.834 71.918 35.604 72.815 34.73 73.298C33.856 73.804 32.706 73.873 31.142 73.873C31.027 73.045 30.521 71.688 30.107 70.929C31.142 70.975 32.269 70.975 32.614 70.975C32.936 70.975 33.051 70.86 33.051 70.538V57.037ZM16.537 57.313L19.32 58.348V74.931H16.537V57.313ZM23.345 55.473L25.599 57.819C23.345 58.877 20.562 59.797 18.147 60.464C17.986 59.82 17.549 58.785 17.204 58.141C19.389 57.474 21.781 56.393 23.345 55.473ZM26.197 57.037H34.5V59.774H28.98V77.001H26.197V57.037ZM56.396 57.704H58.972V71.113H56.396V57.704ZM60.904 55.91H63.549V73.827C63.549 75.299 63.25 76.035 62.4221 76.495C61.571 76.932 60.2141 77.024 58.443 77.024C58.328 76.265 57.96 75.046 57.592 74.264C58.788 74.31 60.007 74.287 60.398 74.287C60.766 74.287 60.904 74.172 60.904 73.804V55.91ZM49.542 63.293H51.842V77.047H49.542V63.293ZM53.153 65.363H55.361V72.24C55.361 73.16 55.246 73.781 54.694 74.149C54.142 74.54 53.475 74.586 52.555 74.586C52.509 73.942 52.21 73.022 51.911 72.424C52.394 72.447 52.785 72.447 52.946 72.447C53.107 72.447 53.153 72.401 53.153 72.194V65.363ZM44.022 56.669H46.483V64.282C46.483 67.847 46.184 73.229 44.459 76.633C44.045 76.173 42.987 75.368 42.412 75.092C43.93 72.033 44.022 67.525 44.022 64.282V56.669ZM45.287 56.669H55.2V63.408H45.287V60.97H52.601V59.13H45.287V56.669ZM46.345 65.363H54.28V67.617H48.346V74.655H46.345V65.363ZM79.9667 56.922C79.8057 57.543 79.5757 58.578 79.4607 59.084C79.1387 60.648 78.5867 63.477 77.9657 65.8C77.1377 69.02 75.5967 73.735 74.3317 76.449L71.1117 75.368C72.4917 73.068 74.2397 68.238 75.0907 65.018C75.6887 62.856 76.2177 60.349 76.3787 58.969C76.4937 58.118 76.5167 57.175 76.4477 56.646L79.9667 56.922ZM74.1017 60.349C76.9077 60.349 80.1507 59.935 83.1407 59.222V62.097C80.2887 62.764 76.6777 63.132 74.0787 63.132C72.9517 63.132 72.1007 63.086 71.2957 63.04L71.2037 60.188C72.3997 60.326 73.1587 60.349 74.1017 60.349ZM81.3237 63.891C82.6117 63.753 84.2447 63.638 85.7627 63.638C87.0737 63.638 88.4537 63.707 89.7877 63.845L89.7417 66.605C88.5687 66.467 87.1657 66.329 85.7857 66.329C84.1757 66.329 82.7727 66.398 81.3237 66.582V63.891ZM82.5657 69.664C82.4047 70.308 82.2667 71.067 82.2667 71.573C82.2667 72.585 82.9337 73.344 85.4177 73.344C86.9357 73.344 88.5457 73.16 90.1787 72.861L90.0637 75.805C88.7757 75.966 87.2347 76.15 85.3947 76.15C81.5077 76.15 79.4377 74.793 79.4377 72.47C79.4377 71.412 79.6217 70.308 79.8287 69.388L82.5657 69.664ZM87.3267 57.589C87.9247 58.417 88.7297 59.889 89.1667 60.74L87.3267 61.522C86.8437 60.579 86.1307 59.222 85.5097 58.325L87.3267 57.589ZM90.0637 56.531C90.6617 57.405 91.5127 58.854 91.9267 59.682L90.0867 60.464C89.6267 59.498 88.8677 58.164 88.2467 57.29L90.0637 56.531ZM114.418 56.715C114.326 57.221 114.303 57.773 114.303 58.302C114.257 59.36 114.303 63.707 114.303 65.064C114.303 70.469 113.889 73.827 109.312 76.725L106.644 74.655C107.541 74.264 108.691 73.528 109.335 72.815C111.083 70.975 111.474 68.905 111.474 65.041C111.474 63.316 111.428 59.59 111.313 58.302C111.267 57.75 111.152 57.083 111.06 56.715H114.418ZM105.333 61.223C106.46 61.384 107.587 61.453 108.829 61.453C111.796 61.453 115.476 61.246 117.73 60.832V63.822C115.545 64.075 112.003 64.259 108.898 64.259C107.886 64.259 106.483 64.19 105.333 64.121V61.223ZM102.964 57.106C102.78 57.681 102.55 58.509 102.435 58.992C101.86 61.545 101.032 66.375 101.653 69.227C101.952 68.514 102.389 67.387 102.757 66.559L104.206 67.479C103.516 69.457 102.918 71.757 102.642 73.068C102.55 73.436 102.481 73.942 102.504 74.195C102.504 74.448 102.527 74.839 102.55 75.161L99.9742 75.414C99.4682 74.011 98.6632 70.814 98.6632 67.962C98.6632 64.19 99.1232 60.648 99.4222 58.762C99.5142 58.141 99.5372 57.359 99.5602 56.784L102.964 57.106ZM136.089 58.762C136.733 59.728 137.745 61.384 138.274 62.442L136.204 63.339C135.514 61.89 134.939 60.786 134.088 59.59L136.089 58.762ZM139.171 57.497C139.861 58.417 140.896 60.05 141.425 61.085L139.424 62.051C138.688 60.602 138.044 59.544 137.193 58.394L139.171 57.497ZM130.155 56.899C130.017 57.888 129.902 59.061 129.856 59.981C129.764 62.442 129.58 67.594 129.58 70.446C129.58 72.769 130.96 73.528 132.754 73.528C136.549 73.528 138.964 71.343 140.62 68.836L142.713 71.389C141.218 73.574 137.975 76.656 132.731 76.656C128.959 76.656 126.521 75 126.521 71.067C126.521 67.985 126.751 61.936 126.751 59.981C126.751 58.877 126.659 57.773 126.452 56.876L130.155 56.899ZM158.844 63.477C158.177 62.764 157.188 61.89 156.337 61.292L158.384 59.797C159.051 60.234 160.362 61.361 160.914 61.982L158.844 63.477ZM154.152 61.591C154.382 62.028 154.681 62.626 154.842 62.948C155.509 64.213 156.705 66.72 157.372 68.33C158.246 70.354 159.58 74.31 160.224 76.357L157.326 77.07C156.774 74.747 155.67 71.573 154.819 69.457C154.106 67.709 153.094 65.501 152.381 64.305C152.128 63.868 151.714 63.201 151.277 62.695L154.152 61.591ZM149.483 67.088C150.357 66.858 151.231 66.582 151.53 66.467C154.934 65.133 159.465 62.81 162.248 62.81C165.606 62.81 167.101 64.903 167.101 66.904C167.101 69.756 165.537 71.527 162.087 71.527C161.098 71.527 159.879 71.205 159.212 70.952L159.281 68.284C160.109 68.675 161.144 68.905 161.88 68.905C163.49 68.905 164.272 68.123 164.272 66.927C164.272 66.145 163.582 65.386 162.133 65.386C159.189 65.386 152.542 69.089 150.794 69.871L149.483 67.088ZM174.652 59.935C175.641 60.05 176.883 60.096 177.711 60.096C180.563 60.096 183.668 59.613 185.899 58.9L185.968 61.568C183.99 62.12 180.678 62.718 177.734 62.695C176.814 62.695 175.848 62.672 174.859 62.626L174.652 59.935ZM183.599 56.485C183.3 57.704 182.748 59.958 182.127 61.913C181.069 65.225 178.999 69.503 177.044 72.217L174.261 70.791C176.331 68.261 178.401 64.236 179.298 61.752C179.85 60.096 180.356 57.957 180.425 56.186L183.599 56.485ZM189.004 63.661C188.935 64.627 188.958 65.593 188.981 66.605C189.027 67.962 189.234 71.389 189.234 72.677C189.234 74.816 188.084 76.495 184.795 76.495C181.943 76.495 179.689 75.207 179.689 72.677C179.689 70.446 181.575 68.698 184.772 68.698C188.797 68.698 191.971 70.722 193.88 72.447L192.362 74.931C190.706 73.39 188.084 71.021 184.611 71.021C183.277 71.021 182.403 71.596 182.403 72.401C182.403 73.252 183.139 73.85 184.404 73.85C185.968 73.85 186.474 72.976 186.474 71.688C186.474 70.308 186.221 66.076 186.106 63.661H189.004ZM192.96 64.88C191.626 63.799 189.004 62.304 187.417 61.591L188.912 59.337C190.568 60.05 193.397 61.591 194.593 62.442L192.96 64.88ZM205.739 58.578C205.578 59.383 205.463 60.74 205.463 61.384C205.463 62.879 205.463 64.581 205.601 66.26C205.923 69.572 206.613 71.849 208.062 71.849C209.166 71.849 210.063 69.135 210.5 67.318L212.823 70.101C211.282 74.126 209.856 75.506 208.016 75.506C205.463 75.506 203.278 73.252 202.634 67.088C202.404 64.972 202.381 62.258 202.381 60.855C202.381 60.234 202.358 59.245 202.197 58.532L205.739 58.578ZM217.239 59.084C219.424 61.729 221.195 67.479 221.448 70.998L218.412 72.194C218.067 68.468 216.825 62.902 214.318 60.05L217.239 59.084Z" fill="white"/>
</g>
<defs>
<filter id="filter0_d_1_1243" x="0.537048" y="0.473145" width="236.911" height="92.5967" filterUnits="userSpaceOnUse" color-interpolation-filters="sRGB">
<feFlood flood-opacity="0" result="BackgroundImageFix"/>
<feColorMatrix in="SourceAlpha" type="matrix" values="0 0 0 0 0 0 0 0 0 0 0 0 0 0 0 0 0 0 127 0" result="hardAlpha"/>
<feOffset/>
<feGaussianBlur stdDeviation="8"/>
<feComposite in2="hardAlpha" operator="out"/>
<feColorMatrix type="matrix" values="0 0 0 0 0.156863 0 0 0 0 0.156863 0 0 0 0 0.156863 0 0 0 0.3 0"/>
<feBlend mode="normal" in2="BackgroundImageFix" result="effect1_dropShadow_1_1243"/>
<feBlend mode="normal" in="SourceGraphic" in2="effect1_dropShadow_1_1243" result="shape"/>
</filter>
</defs>
</svg>