<svg width="835" height="366" viewBox="0 0 835 366" fill="none" xmlns="http://www.w3.org/2000/svg">
<g clip-path="url(#clip0_6248_8313)">
<path d="M508.771 445.421H556.486L595.038 237.328H534.479L460.75 375.695L437.741 237.328H377.858L339.367 445.421H387.061L409.64 323.431L428.763 445.421H467.724L531.125 324.741L508.771 445.421Z" fill="white" fill-opacity="0.1"/>
<path d="M747.142 237.328H699.427L660.875 445.421H708.61L747.142 237.328Z" fill="white" fill-opacity="0.1"/>
<path d="M-40.8746 585.282L-19.625 464.746C2.29956 471.87 25.9421 475.617 50.7708 475.617C180.6 475.617 304.253 371.028 326.423 242.487C337.508 178.022 322.271 117.181 283.535 71.079C244.942 25.2433 188.004 0.00195312 123.191 0.00195312C-6.65845 0.00195312 -130.332 104.591 -152.461 233.131C-163.566 297.576 -148.37 358.438 -109.614 404.478C-96.2587 420.364 -80.6129 433.691 -63.3105 444.438L-88.1188 585.282H-40.8951H-40.8746ZM19.6838 241.648C26.392 203.12 63.4102 171.758 102.33 171.758C119.408 171.758 134.092 178.063 143.766 189.527C153.46 201.053 157.162 216.795 154.258 233.848C147.611 272.457 110.552 303.84 71.5705 303.84C54.534 303.84 39.829 297.535 30.1961 286.071C20.5018 274.586 16.7796 258.885 19.7042 241.873V241.689L19.6838 241.648ZM4.77425 326.297C22.6084 341.856 45.801 350.413 71.5705 350.413C132.19 350.413 189.804 301.65 200.152 241.75C205.408 210.94 198.025 181.728 179.373 159.475C160.741 137.345 133.417 125.185 102.351 125.185C45.7601 125.185 -8.21278 167.705 -23.4904 222.138L-24.104 222.015L-52.5936 383.822C-57.8498 379.216 -62.9015 374.344 -67.4214 368.98C-95.5633 335.55 -106.464 290.615 -98.1607 242.487C-80.3675 139.208 18.927 55.1522 123.212 55.1522C171.499 55.1522 213.446 73.4333 241.404 106.618C269.505 140.048 280.426 184.982 272.123 233.131C254.33 336.41 155.035 420.446 50.8117 420.446C29.0303 420.446 8.68059 416.536 -9.84894 409.432L4.79471 326.297H4.77425Z" fill="white" fill-opacity="0.1"/>
</g>
<defs>
<clipPath id="clip0_6248_8313">
<rect width="835" height="366" fill="white"/>
</clipPath>
</defs>
</svg>
