<svg width="385" height="200" viewBox="0 0 385 200" fill="none" xmlns="http://www.w3.org/2000/svg">
<g clip-path="url(#clip0_6248_8324)">
<path d="M118.95 -1.78973L97.9792 -1.78973L81.0349 89.6719L107.651 89.6719L140.057 28.8564L150.169 89.6719L176.489 89.6719L193.406 -1.78972L172.444 -1.78972L162.52 51.8276L154.115 -1.78973L136.991 -1.78973L109.126 51.2517L118.95 -1.78973Z" fill="white" fill-opacity="0.1"/>
<path d="M14.186 89.6719L35.1573 89.6719L52.1016 -1.78972L31.1213 -1.78972L14.186 89.6719Z" fill="white" fill-opacity="0.1"/>
<path d="M356.555 -63.0176L347.216 -10.0392C337.579 -13.1704 327.188 -14.817 316.275 -14.817C259.213 -14.817 204.866 31.1523 195.122 87.6488C190.25 115.983 196.947 142.724 213.972 162.987C230.934 183.132 255.959 194.227 284.445 194.227C341.517 194.227 395.873 148.257 405.599 91.7608C410.48 63.436 403.801 36.6859 386.767 16.45C380.897 9.46784 374.021 3.61032 366.416 -1.11346L377.32 -63.0176L356.564 -63.0176L356.555 -63.0176ZM329.939 88.0177C326.99 104.951 310.72 118.736 293.614 118.736C286.108 118.736 279.654 115.965 275.403 110.926C271.142 105.86 269.515 98.9409 270.791 91.4458C273.713 74.4762 290.001 60.6827 307.134 60.6827C314.621 60.6827 321.085 63.454 325.318 68.4927C329.579 73.5404 331.215 80.4417 329.93 87.9188L329.93 87.9997L329.939 88.0177ZM336.492 50.8123C328.653 43.974 318.46 40.213 307.134 40.213C280.49 40.213 255.168 61.6455 250.62 87.9727C248.31 101.514 251.555 114.354 259.753 124.134C267.942 133.861 279.951 139.206 293.605 139.206C318.478 139.206 342.2 120.517 348.914 96.5925L349.184 96.6465L361.706 25.5287C364.016 27.5532 366.236 29.6947 368.223 32.052C380.592 46.7453 385.383 66.4952 381.733 87.6488C373.913 133.042 330.271 169.987 284.436 169.987C263.213 169.987 244.777 161.952 232.489 147.367C220.138 132.673 215.338 112.923 218.988 91.7608C226.808 46.3674 270.45 9.43183 316.257 9.43183C325.831 9.43184 334.775 11.1504 342.919 14.2726L336.483 50.8123L336.492 50.8123Z" fill="white" fill-opacity="0.1"/>
</g>
<defs>
<clipPath id="clip0_6248_8324">
<rect width="385" height="200" fill="white" transform="translate(385 200) rotate(-180)"/>
</clipPath>
</defs>
</svg>
