<svg width="118" height="118" viewBox="0 0 118 118" fill="none" xmlns="http://www.w3.org/2000/svg">
<rect width="118" height="118" rx="59" fill="#F1F9FF"/>
<path d="M40.9966 91.5002H77.0026C78.9914 91.5002 80.6029 90.0258 80.6029 88.2085V54.6182L83.9031 55.6228C85.7753 56.1937 87.8377 55.6845 89.1424 54.3318L93.7747 49.5332C95.3914 47.8462 95.4051 45.3312 93.8107 43.6271L81.7344 30.8376C80.6595 29.6958 79.24 28.8695 77.6541 28.4614L67.1157 25.7527C66.4848 25.5898 65.8093 25.6584 65.2315 25.943C64.7292 26.1915 63.1177 26.7642 58.9996 26.7642C54.8816 26.7642 53.2684 26.1915 52.7678 25.943C52.19 25.6584 51.5145 25.5915 50.8836 25.7527L40.3469 28.4649C38.7611 28.8729 37.3415 29.6992 36.2666 30.841L24.1869 43.6288C22.5908 45.3329 22.6062 47.848 24.2229 49.5349L28.8569 54.3318C30.1633 55.6811 32.2223 56.1868 34.0927 55.6194L37.3964 54.6182V88.2068C37.3964 90.0241 39.0079 91.4985 40.9966 91.4985V91.5002Z" fill="white"/>
<path d="M40.9966 91.5002H77.0026C78.9914 91.5002 80.6029 90.0258 80.6029 88.2085V54.6182L83.9031 55.6228C85.7753 56.1937 87.8377 55.6845 89.1424 54.3318L93.7747 49.5332C95.3914 47.8462 95.4051 45.3312 93.8107 43.6271L81.7344 30.8376C80.6595 29.6958 79.24 28.8695 77.6541 28.4614L67.1157 25.7527C66.4848 25.5898 65.8093 25.6584 65.2315 25.943C64.7292 26.1915 63.1177 26.7642 58.9996 26.7642C54.8816 26.7642 53.2684 26.1915 52.7678 25.943C52.19 25.6584 51.5145 25.5915 50.8836 25.7527L40.3469 28.4649C38.7611 28.8729 37.3415 29.6992 36.2666 30.841L24.1869 43.6288C22.5908 45.3329 22.6062 47.848 24.2229 49.5349L28.8569 54.3318C30.1633 55.6811 32.2223 56.1868 34.0927 55.6194L37.3964 54.6182V88.2068C37.3964 90.0241 39.0079 91.4985 40.9966 91.4985V91.5002ZM64.9435 28.3808C64.6521 31.1822 62.0787 33.3218 58.9996 33.3218C55.9206 33.3218 53.349 31.1788 53.0609 28.3757C55.0034 28.8146 57.0006 29.0117 58.9996 28.9586C61.0004 29.0083 62.9994 28.8146 64.9435 28.3808ZM33.3367 53.5364C32.38 53.8278 31.3257 53.5689 30.6571 52.878L26.023 48.0845C25.1949 47.2222 25.1864 45.9347 26.0041 45.0638L38.0804 32.2726C38.8485 31.4582 39.8634 30.8685 40.9966 30.577L50.6128 28.1323C50.7739 32.2657 54.4908 35.5385 59.0151 35.5299C63.5394 35.5214 67.2425 32.2366 67.3865 28.1031L77.0026 30.577C78.1359 30.8685 79.1508 31.4582 79.9189 32.2726L91.9934 45.0638C92.8095 45.933 92.8026 47.2205 91.9763 48.0828L87.344 52.8763C86.6771 53.5706 85.6193 53.8295 84.6609 53.5346L80.6012 52.3054V46.5124C80.6012 45.9055 80.0646 45.4152 79.4011 45.4152C78.7376 45.4152 78.201 45.9072 78.201 46.5124V88.2068C78.201 88.8137 77.6644 89.3041 77.0009 89.3041H40.9966C40.3332 89.3041 39.7966 88.8137 39.7966 88.2068V46.5141C39.7966 45.9072 39.2582 45.4169 38.5965 45.4169C37.9347 45.4169 37.3964 45.909 37.3964 46.5141V52.3071L33.335 53.5364H33.3367Z" fill="#0068B6"/>
<path d="M48.0938 55.4288V75.1788C48.0938 76.3909 49.0761 77.3732 50.2882 77.3732H67.8437C69.0558 77.3732 70.0382 76.3909 70.0382 75.1788V55.4288C70.0382 54.2167 69.0558 53.2344 67.8437 53.2344H50.2882C49.0761 53.2344 48.0938 54.2167 48.0938 55.4288ZM50.2882 73.3204L55.3268 68.6195C55.3628 68.5886 55.416 68.592 55.4486 68.6263L62.0096 75.1805H50.2882V73.3204ZM65.1144 75.1788L61.2844 71.3522L64.2126 68.6195C64.2486 68.5869 64.3035 68.5903 64.3378 68.6263L67.8437 72.1237V75.1788H65.1144ZM67.8437 69.0258L65.879 67.0594C65.0064 66.2022 63.616 66.1816 62.7159 67.0096L59.7312 69.8024L57.0001 67.0765C56.1343 66.2004 54.7285 66.1747 53.8302 67.0165L50.2882 70.3185V55.4288H67.8437V69.0258Z" fill="#0068B6"/>
<path d="M55.7743 64.2067C57.1047 64.2067 58.3048 63.406 58.8157 62.1751C59.3249 60.9441 59.0437 59.5298 58.1025 58.5885C57.1613 57.6473 55.7452 57.3645 54.5159 57.8754C53.285 58.3845 52.4844 59.5846 52.4844 60.9167C52.4844 62.7357 53.9571 64.2084 55.776 64.2084L55.7743 64.2067ZM55.7743 59.8195C56.2184 59.8195 56.6178 60.0869 56.7875 60.4967C56.9573 60.9064 56.8647 61.3796 56.5492 61.6933C56.2355 62.0071 55.764 62.1014 55.3543 61.9316C54.9446 61.7619 54.6771 61.3625 54.6771 60.9184C54.6771 60.3115 55.1691 59.8212 55.7743 59.8212V59.8195Z" fill="#0068B6"/>
<path d="M44.8003 55.429C45.4055 55.429 45.8976 54.9387 45.8976 54.3318V51.0401H49.1892C49.7961 51.0401 50.2865 50.5481 50.2865 49.9429C50.2865 49.3377 49.7944 48.8457 49.1892 48.8457H45.8976C44.6855 48.8457 43.7031 49.8281 43.7031 51.0401V54.3318C43.7031 54.9387 44.1952 55.429 44.8003 55.429Z" fill="#0068B6"/>
<path d="M68.941 51.0421H72.2326V54.3338C72.2326 54.9407 72.723 55.431 73.3299 55.431C73.9368 55.431 74.4271 54.9407 74.4271 54.3338V51.0421C74.4271 49.83 73.4447 48.8477 72.2326 48.8477H68.941C68.3341 48.8477 67.8438 49.338 67.8438 49.9449C67.8438 50.5518 68.3358 51.0421 68.941 51.0421Z" fill="#0068B6"/>
<path d="M45.8976 81.764H49.1892C49.7961 81.764 50.2865 81.272 50.2865 80.6668C50.2865 80.0616 49.7944 79.5696 49.1892 79.5696H45.8976V76.2779C45.8976 75.671 45.4072 75.1807 44.8003 75.1807C44.1934 75.1807 43.7031 75.6727 43.7031 76.2779V79.5696C43.7031 80.7816 44.6855 81.764 45.8976 81.764Z" fill="#0068B6"/>
<path d="M73.3299 75.1787C72.723 75.1787 72.2326 75.6708 72.2326 76.2759V79.5676H68.941C68.3341 79.5676 67.8438 80.0596 67.8438 80.6648C67.8438 81.27 68.3358 81.762 68.941 81.762H72.2326C73.4447 81.762 74.4271 80.7797 74.4271 79.5676V76.2759C74.4271 75.669 73.935 75.1787 73.3299 75.1787Z" fill="#0068B6"/>
</svg>
