<svg width="14" height="13" viewBox="0 0 14 13" fill="none" xmlns="http://www.w3.org/2000/svg">
<path d="M2.16497 12.6391C1.80013 12.6391 1.49132 12.5127 1.23854 12.2599C0.985764 12.0072 0.859375 11.6984 0.859375 11.3335V1.66693C0.859375 1.30208 0.985764 0.993273 1.23854 0.740495C1.49132 0.487717 1.80013 0.361328 2.16497 0.361328H6.72039V1.44466H2.16497C2.10936 1.44466 2.05844 1.46783 2.01222 1.51417C1.96588 1.5604 1.94271 1.61131 1.94271 1.66693V11.3335C1.94271 11.3891 1.96588 11.44 2.01222 11.4863C2.05844 11.5326 2.10936 11.5558 2.16497 11.5558H11.8316C11.8872 11.5558 11.9381 11.5326 11.9843 11.4863C12.0306 11.44 12.0538 11.3891 12.0538 11.3335V6.77809H13.1372V11.3335C13.1372 11.6984 13.0108 12.0072 12.758 12.2599C12.5052 12.5127 12.1964 12.6391 11.8316 12.6391H2.16497ZM5.35106 8.90847L4.59001 8.14743L11.2928 1.44466H8.44271V0.361328H13.1372V5.05577H12.0538V2.2057L5.35106 8.90847Z" fill="#0068B6"/>
</svg>
