<svg width="19" height="20" viewBox="0 0 19 20" fill="none" xmlns="http://www.w3.org/2000/svg">
<g id="icon/external-link-alt">
<path id="&#239;&#141;&#157;" d="M14.9427 11.9788H13.9532C13.6748 11.9788 13.4584 12.2262 13.4584 12.4736V15.9372H3.56254V6.04134H8.01567C8.26306 6.04134 8.51046 5.82487 8.51046 5.54655V4.55697C8.51046 4.30957 8.26306 4.06217 8.01567 4.06217H3.06775C2.23279 4.06217 1.58337 4.74251 1.58337 5.54655V16.432C1.58337 17.2669 2.23279 17.9163 3.06775 17.9163H13.9532C14.7572 17.9163 15.4375 17.2669 15.4375 16.432V12.4736C15.4375 12.2262 15.1901 11.9788 14.9427 11.9788ZM16.6745 2.08301H12.7162C12.0358 2.08301 11.6957 2.88704 12.1905 3.35091L13.2728 4.46419L5.75818 12.0098C5.60356 12.1335 5.51078 12.319 5.51078 12.5355C5.51078 12.752 5.60356 12.9375 5.75818 13.0612L6.43852 13.7415C6.59314 13.8962 6.77869 13.9889 6.96423 13.9889C7.18071 13.9889 7.36625 13.8962 7.48995 13.7415L15.0355 6.22689L16.1488 7.30925C16.6127 7.77311 17.4167 7.46387 17.4167 6.78353V2.8252C17.4167 2.42318 17.0765 2.08301 16.6745 2.08301Z" fill="white"/>
</g>
</svg>
