<svg xmlns="http://www.w3.org/2000/svg" viewBox="0 0 16 16" fill="none">
  <g clip-path="url(#clip0_1_1629)">
    <path d="M2.05135 15.5554C1.60231 15.5554 1.22224 15.3999 0.911125 15.0888C0.600014 14.7777 0.444458 14.3976 0.444458 13.9486V2.05122C0.444458 1.60219 0.600014 1.22211 0.911125 0.911003C1.22224 0.599891 1.60231 0.444336 2.05135 0.444336H7.65801V1.77767H2.05135C1.9829 1.77767 1.92024 1.80619 1.86335 1.86322C1.80631 1.92011 1.77779 1.98278 1.77779 2.05122V13.9486C1.77779 14.017 1.80631 14.0797 1.86335 14.1366C1.92024 14.1936 1.9829 14.2221 2.05135 14.2221H13.9487C14.0171 14.2221 14.0798 14.1936 14.1367 14.1366C14.1937 14.0797 14.2222 14.017 14.2222 13.9486V8.34189H15.5556V13.9486C15.5556 14.3976 15.4 14.7777 15.0889 15.0888C14.7778 15.3999 14.3977 15.5554 13.9487 15.5554H2.05135ZM5.97268 10.9639L5.03601 10.0272L13.2856 1.77767H9.77779V0.444336H15.5556V6.22211H14.2222V2.71434L5.97268 10.9639Z" fill="white"/>
  </g>
  <defs>
    <clipPath id="clip0_1_1629">
      <rect width="16" height="16" fill="white"/>
    </clipPath>
  </defs>
</svg>